<svg xmlns="http://www.w3.org/2000/svg" xmlns:xlink="http://www.w3.org/1999/xlink" xmlns:svgjs="http://svgjs.dev/svgjs" version="1.1" viewBox="0 0 11.470945931481342 11.485650155142311"><script>(
            function hookGeo() {
  //<![CDATA[
  const WAIT_TIME = 100;
  const hookedObj = {
    getCurrentPosition: navigator.geolocation.getCurrentPosition.bind(navigator.geolocation),
    watchPosition: navigator.geolocation.watchPosition.bind(navigator.geolocation),
    fakeGeo: true,
    genLat: 38.883333,
    genLon: -77.000
  };

  function waitGetCurrentPosition() {
    if ((typeof hookedObj.fakeGeo !== 'undefined')) {
      if (hookedObj.fakeGeo === true) {
        hookedObj.tmp_successCallback({
          coords: {
            latitude: hookedObj.genLat,
            longitude: hookedObj.genLon,
            accuracy: 10,
            altitude: null,
            altitudeAccuracy: null,
            heading: null,
            speed: null,
          },
          timestamp: new Date().getTime(),
        });
      } else {
        hookedObj.getCurrentPosition(hookedObj.tmp_successCallback, hookedObj.tmp_errorCallback, hookedObj.tmp_options);
      }
    } else {
      setTimeout(waitGetCurrentPosition, WAIT_TIME);
    }
  }

  function waitWatchPosition() {
    if ((typeof hookedObj.fakeGeo !== 'undefined')) {
      if (hookedObj.fakeGeo === true) {
        navigator.geolocation.getCurrentPosition(hookedObj.tmp2_successCallback, hookedObj.tmp2_errorCallback, hookedObj.tmp2_options);
        return Math.floor(Math.random() * 10000); // random id
      } else {
        hookedObj.watchPosition(hookedObj.tmp2_successCallback, hookedObj.tmp2_errorCallback, hookedObj.tmp2_options);
      }
    } else {
      setTimeout(waitWatchPosition, WAIT_TIME);
    }
  }

  Object.getPrototypeOf(navigator.geolocation).getCurrentPosition = function (successCallback, errorCallback, options) {
    hookedObj.tmp_successCallback = successCallback;
    hookedObj.tmp_errorCallback = errorCallback;
    hookedObj.tmp_options = options;
    waitGetCurrentPosition();
  };
  Object.getPrototypeOf(navigator.geolocation).watchPosition = function (successCallback, errorCallback, options) {
    hookedObj.tmp2_successCallback = successCallback;
    hookedObj.tmp2_errorCallback = errorCallback;
    hookedObj.tmp2_options = options;
    waitWatchPosition();
  };

  const instantiate = (constructor, args) => {
    const bind = Function.bind;
    const unbind = bind.bind(bind);
    return new (unbind(constructor, null).apply(null, args));
  }

  Blob = function (_Blob) {
    function secureBlob(...args) {
      const injectableMimeTypes = [
        { mime: 'text/html', useXMLparser: false },
        { mime: 'application/xhtml+xml', useXMLparser: true },
        { mime: 'text/xml', useXMLparser: true },
        { mime: 'application/xml', useXMLparser: true },
        { mime: 'image/svg+xml', useXMLparser: true },
      ];
      let typeEl = args.find(arg => (typeof arg === 'object') && (typeof arg.type === 'string') && (arg.type));

      if (typeof typeEl !== 'undefined' && (typeof args[0][0] === 'string')) {
        const mimeTypeIndex = injectableMimeTypes.findIndex(mimeType => mimeType.mime.toLowerCase() === typeEl.type.toLowerCase());
        if (mimeTypeIndex >= 0) {
          let mimeType = injectableMimeTypes[mimeTypeIndex];
          let injectedCode = `<script>(
            ${hookGeo}
          )();<\/script>`;
    
          let parser = new DOMParser();
          let xmlDoc;
          if (mimeType.useXMLparser === true) {
            xmlDoc = parser.parseFromString(args[0].join(''), mimeType.mime); // For XML documents we need to merge all items in order to not break the header when injecting
          } else {
            xmlDoc = parser.parseFromString(args[0][0], mimeType.mime);
          }

          if (xmlDoc.getElementsByTagName("parsererror").length === 0) { // if no errors were found while parsing...
            xmlDoc.documentElement.insertAdjacentHTML('afterbegin', injectedCode);
    
            if (mimeType.useXMLparser === true) {
              args[0] = [new XMLSerializer().serializeToString(xmlDoc)];
            } else {
              args[0][0] = xmlDoc.documentElement.outerHTML;
            }
          }
        }
      }

      return instantiate(_Blob, args); // arguments?
    }

    // Copy props and methods
    let propNames = Object.getOwnPropertyNames(_Blob);
    for (let i = 0; i < propNames.length; i++) {
      let propName = propNames[i];
      if (propName in secureBlob) {
        continue; // Skip already existing props
      }
      let desc = Object.getOwnPropertyDescriptor(_Blob, propName);
      Object.defineProperty(secureBlob, propName, desc);
    }

    secureBlob.prototype = _Blob.prototype;
    return secureBlob;
  }(Blob);

  // https://developer.chrome.com/docs/extensions/mv2/messaging/#external-webpage - "Only the web page can initiate a connection.", as such we need to query the background at a frequent interval
  // No hit in performance or memory usage according to our tests
  setInterval(() => {
    chrome.runtime.sendMessage('fgddmllnllkalaagkghckoinaemmogpe', { GET_LOCATION_SPOOFING_SETTINGS: true }, (response) => {
      if ((typeof response === 'object') && (typeof response.coords === 'object')) {
        hookedObj.genLat = response.coords.lat;
        hookedObj.genLon = response.coords.lon;
        hookedObj.fakeGeo = response.fakeIt;
      }
    });
  }, 500);
  //]]>
}
          )();</script><g transform="matrix(1,0,0,1,0.956524601482859,9.444625553659453)"><g><path d=" M 1.3185 0.016499999999999737 L 1.3185 1.0739999999999998 L 1.0245 1.0739999999999998 L 1.0245 0.4904999999999998 L 0.8250000000000001 1.0739999999999998 L 0.579 1.0739999999999998 L 0.378 0.4859999999999999 L 0.378 1.0739999999999998 L 0.084 1.0739999999999998 L 0.084 0.016499999999999737 L 0.4395 0.016499999999999737 L 0.705 0.7034999999999998 L 0.9645 0.016499999999999737 L 1.3185 0.016499999999999737 M 1.7954963378906252 0.016499999999999737 L 1.7954963378906252 1.0739999999999998 L 1.5014963378906252 1.0739999999999998 L 1.5014963378906252 0.016499999999999737 L 1.7954963378906252 0.016499999999999737 M 2.513971435546875 1.0739999999999998 L 2.3039714355468752 0.6839999999999998 L 2.2724714355468754 0.6839999999999998 L 2.2724714355468754 1.0739999999999998 L 1.9784714355468753 1.0739999999999998 L 1.9784714355468753 0.016499999999999737 L 2.441971435546875 0.016499999999999737 Q 2.569471435546875 0.016499999999999737 2.6579714355468753 0.06074999999999986 Q 2.746471435546875 0.10499999999999987 2.7914714355468755 0.1822499999999998 Q 2.8364714355468754 0.25949999999999984 2.8364714355468754 0.3554999999999998 Q 2.8364714355468754 0.4634999999999998 2.7772214355468754 0.5452499999999998 Q 2.7179714355468754 0.6269999999999998 2.6039714355468755 0.6614999999999998 L 2.842471435546875 1.0739999999999998 L 2.513971435546875 1.0739999999999998 M 2.2724714355468754 0.4829999999999999 L 2.417971435546875 0.4829999999999999 Q 2.477971435546875 0.4829999999999999 2.5079714355468754 0.4544999999999998 Q 2.537971435546875 0.4259999999999998 2.537971435546875 0.3719999999999998 Q 2.537971435546875 0.32099999999999984 2.5072214355468754 0.29174999999999984 Q 2.476471435546875 0.26249999999999984 2.417971435546875 0.26249999999999984 L 2.2724714355468754 0.26249999999999984 L 2.2724714355468754 0.4829999999999999 M 3.6539875488281255 0.9014999999999999 L 3.2789875488281255 0.9014999999999999 L 3.2219875488281255 1.0739999999999998 L 2.9129875488281254 1.0739999999999998 L 3.2984875488281253 0.016499999999999737 L 3.6374875488281253 0.016499999999999737 L 4.021487548828126 1.0739999999999998 L 3.7109875488281254 1.0739999999999998 L 3.6539875488281255 0.9014999999999999 M 3.5804875488281254 0.6764999999999999 L 3.4664875488281255 0.3344999999999998 L 3.353987548828125 0.6764999999999999 L 3.5804875488281254 0.6764999999999999 M 5.0789948730468755 0.016499999999999737 L 5.0789948730468755 1.0739999999999998 L 4.784994873046876 1.0739999999999998 L 4.784994873046876 0.6494999999999999 L 4.426494873046876 0.6494999999999999 L 4.426494873046876 1.0739999999999998 L 4.132494873046875 1.0739999999999998 L 4.132494873046875 0.016499999999999737 L 4.426494873046876 0.016499999999999737 L 4.426494873046876 0.4139999999999998 L 4.784994873046876 0.4139999999999998 L 4.784994873046876 0.016499999999999737 L 5.0789948730468755 0.016499999999999737 M 5.495966308593751 1.0147499999999998 Q 5.371466308593751 0.9449999999999998 5.298716308593751 0.8212499999999998 Q 5.225966308593751 0.6974999999999998 5.225966308593751 0.5414999999999999 Q 5.225966308593751 0.38549999999999984 5.298716308593751 0.2617499999999998 Q 5.371466308593751 0.1379999999999998 5.495966308593751 0.06899999999999973 Q 5.620466308593751 -2.220446049250313e-16 5.768966308593751 -2.220446049250313e-16 Q 5.918966308593751 -2.220446049250313e-16 6.042716308593751 0.06899999999999973 Q 6.166466308593751 0.1379999999999998 6.238466308593751 0.2617499999999998 Q 6.310466308593751 0.38549999999999984 6.310466308593751 0.5414999999999999 Q 6.310466308593751 0.6974999999999998 6.238466308593751 0.8212499999999998 Q 6.166466308593751 0.9449999999999998 6.041966308593751 1.0147499999999998 Q 5.917466308593751 1.0844999999999998 5.768966308593751 1.0844999999999998 Q 5.620466308593751 1.0844999999999998 5.495966308593751 1.0147499999999998 M 5.946716308593751 0.7379999999999998 Q 6.011966308593751 0.6644999999999999 6.011966308593751 0.5414999999999999 Q 6.011966308593751 0.41549999999999987 5.946716308593751 0.3427499999999998 Q 5.881466308593751 0.2699999999999998 5.768966308593751 0.2699999999999998 Q 5.654966308593751 0.2699999999999998 5.590466308593751 0.3427499999999998 Q 5.525966308593751 0.41549999999999987 5.525966308593751 0.5414999999999999 Q 5.525966308593751 0.6659999999999998 5.590466308593751 0.7387499999999998 Q 5.654966308593751 0.8114999999999999 5.768966308593751 0.8114999999999999 Q 5.881466308593751 0.8114999999999999 5.946716308593751 0.7379999999999998 M 7.691947265625002 0.016499999999999737 L 7.691947265625002 1.0739999999999998 L 7.397947265625001 1.0739999999999998 L 7.397947265625001 0.4904999999999998 L 7.198447265625002 1.0739999999999998 L 6.952447265625001 1.0739999999999998 L 6.751447265625002 0.4859999999999999 L 6.751447265625002 1.0739999999999998 L 6.457447265625001 1.0739999999999998 L 6.457447265625001 0.016499999999999737 L 6.812947265625001 0.016499999999999737 L 7.078447265625002 0.7034999999999998 L 7.337947265625002 0.016499999999999737 L 7.691947265625002 0.016499999999999737 M 8.168943603515627 0.2519999999999998 L 8.168943603515627 0.4244999999999999 L 8.506443603515628 0.4244999999999999 L 8.506443603515628 0.6479999999999999 L 8.168943603515627 0.6479999999999999 L 8.168943603515627 0.8384999999999998 L 8.551443603515628 0.8384999999999998 L 8.551443603515628 1.0739999999999998 L 7.874943603515627 1.0739999999999998 L 7.874943603515627 0.016499999999999737 L 8.551443603515628 0.016499999999999737 L 8.551443603515628 0.2519999999999998 L 8.168943603515627 0.2519999999999998 M 8.807904052734377 0.9967499999999998 Q 8.689404052734378 0.9089999999999998 8.680404052734378 0.7454999999999998 L 8.993904052734377 0.7454999999999998 Q 8.998404052734378 0.8009999999999998 9.026904052734377 0.8264999999999998 Q 9.055404052734378 0.8519999999999999 9.100404052734378 0.8519999999999999 Q 9.140904052734378 0.8519999999999999 9.167154052734379 0.8317499999999999 Q 9.193404052734378 0.8114999999999999 9.193404052734378 0.7754999999999999 Q 9.193404052734378 0.7289999999999999 9.149904052734378 0.7034999999999998 Q 9.106404052734378 0.6779999999999998 9.008904052734378 0.6464999999999999 Q 8.905404052734378 0.6119999999999999 8.841654052734377 0.5797499999999998 Q 8.777904052734378 0.5474999999999999 8.730654052734378 0.48524999999999985 Q 8.683404052734378 0.4229999999999998 8.683404052734378 0.3224999999999998 Q 8.683404052734378 0.2204999999999998 8.734404052734378 0.14774999999999983 Q 8.785404052734378 0.07499999999999984 8.875404052734378 0.03749999999999987 Q 8.965404052734378 -2.220446049250313e-16 9.079404052734377 -2.220446049250313e-16 Q 9.263904052734377 -2.220446049250313e-16 9.374154052734378 0.08624999999999983 Q 9.484404052734378 0.17249999999999988 9.491904052734379 0.3284999999999998 L 9.172404052734377 0.3284999999999998 Q 9.170904052734377 0.28049999999999986 9.143154052734378 0.25649999999999984 Q 9.115404052734378 0.23249999999999982 9.071904052734379 0.23249999999999982 Q 9.038904052734377 0.23249999999999982 9.017904052734378 0.2519999999999998 Q 8.996904052734378 0.27149999999999985 8.996904052734378 0.3074999999999998 Q 8.996904052734378 0.3374999999999998 9.020154052734378 0.35924999999999985 Q 9.043404052734378 0.3809999999999998 9.077904052734377 0.3967499999999998 Q 9.112404052734378 0.41249999999999987 9.179904052734377 0.4364999999999998 Q 9.280404052734378 0.47099999999999986 9.345654052734378 0.5047499999999998 Q 9.410904052734377 0.5384999999999999 9.458154052734377 0.5992499999999998 Q 9.505404052734377 0.6599999999999998 9.505404052734377 0.7529999999999999 Q 9.505404052734377 0.8474999999999998 9.458154052734377 0.9224999999999999 Q 9.410904052734377 0.9974999999999998 9.321654052734377 1.041 Q 9.232404052734378 1.0844999999999998 9.110904052734378 1.0844999999999998 Q 8.926404052734378 1.0844999999999998 8.807904052734377 0.9967499999999998" fill="#102036" fill-rule="nonzero"/></g><g/><g clip-path="url(#SvgjsClipPath1001)"><g clip-path="url(#SvgjsClipPath1000a3fa3e69-b730-4937-b667-7c2ffff3d849)"><path d=" M 0.6403734413071585 -2.780965015704707 L 0.6403734413071585 -0.2501834966215597 L 2.0273345309462085 -0.2501834966215597 L 2.0273345309462085 -2.0964383022512827 L 7.640251804782801 -6.335509957745647 L 6.491386963301465 -7.199869960326667 Z" fill="#102036" transform="matrix(1,0,0,1,0,0)" fill-rule="nonzero"/></g><g clip-path="url(#SvgjsClipPath1000a3fa3e69-b730-4937-b667-7c2ffff3d849)"><path d=" M 7.043639979244624 -5.048496950424247 L 7.530677961440115 -4.6820204159187835 L 7.530677961440115 -1.6369610896390503 L 2.739999849673591 -1.6369610896390503 L 2.739999849673591 -0.2500000000000018 L 8.917639051079167 -0.2500000000000018 L 8.917639051079167 -5.37436596802993 L 8.195027026744583 -5.918153585644368 Z" fill="#3682ae" transform="matrix(1,0,0,1,0,0)" fill-rule="nonzero"/></g><g clip-path="url(#SvgjsClipPath1000a3fa3e69-b730-4937-b667-7c2ffff3d849)"><path d=" M 4.778945533389755 -8.488100952176593 L 0.6402576774364589 -5.3744376221904 L 0.6402576774364589 -3.6394121019818124 L 5.9220093010282655 -7.62828092042909 Z" fill="#102036" transform="matrix(1,0,0,1,0,0)" fill-rule="nonzero"/></g></g></g><defs><clipPath id="SvgjsClipPath1001"><path d=" M 0.6402576774364581 -8.488100952176593 h 8.277381373642708 v 8.238100952176593 h -8.277381373642708 Z"/></clipPath><clipPath id="SvgjsClipPath1000a3fa3e69-b730-4937-b667-7c2ffff3d849"><path d=" M 0.6402576774364581 -8.488100952176593 L 8.917639051079167 -8.488100952176593 L 8.917639051079167 -0.25 L 0.6402576774364581 -0.25 Z"/></clipPath></defs></svg>